<svg width="1434" height="48" viewBox="0 0 1434 48" fill="none" xmlns="http://www.w3.org/2000/svg">
<path fill-rule="evenodd" clip-rule="evenodd" d="M19.4985 38.997C8.72975 38.997 0 30.2672 0 19.4985C0 8.72975 8.72975 0 19.4985 0C30.2672 0 38.997 8.72975 38.997 19.4985C38.997 30.2672 30.2672 38.997 19.4985 38.997ZM19.4985 37.6042C29.498 37.6042 37.6042 29.498 37.6042 19.4985C37.6042 9.49895 29.498 1.39275 19.4985 1.39275C9.49895 1.39275 1.39275 9.49895 1.39275 19.4985C1.39275 29.498 9.49895 37.6042 19.4985 37.6042Z" fill="white" fill-opacity="0.5"/>
<path fill-rule="evenodd" clip-rule="evenodd" d="M4.40979 12.8317C5.24425 10.8361 6.44162 9.67613 6.76493 9.34804C7.08825 9.02015 7.54726 9.18011 7.85466 9.34804C8.16206 9.51617 15.8675 17.2342 16.2116 17.6218C16.5554 18.0093 16.9199 18.5875 15.9328 18.5875C14.9455 18.5875 5.24684 18.5028 4.40979 18.4451C3.57255 18.3872 3.32544 17.8989 3.32544 17.4819C3.32544 17.0649 3.57514 14.8275 4.40979 12.8317ZM13.7317 4.2458C15.733 3.42468 17.1598 3.4786 17.6204 3.47541C18.081 3.47223 18.2923 3.90975 18.391 4.2458C18.4895 4.58205 18.5611 15.5539 18.5303 16.071C18.4992 16.5883 18.5078 17.162 17.8098 16.4638C17.1117 15.7658 10.3135 8.84784 9.76253 8.21514C9.2114 7.58223 9.38191 7.06214 9.67697 6.76728C9.97184 6.47241 11.7301 5.06713 13.7317 4.2458ZM25.9664 4.40955C27.962 5.24401 29.1219 6.44137 29.45 6.76469C29.7779 7.08801 29.618 7.54702 29.45 7.85442C29.2819 8.16182 21.5639 15.8673 21.1763 16.2113C20.7887 16.5551 20.2105 16.9196 20.2105 15.9326C20.2105 14.9453 20.2953 5.24659 20.353 4.40955C20.4109 3.57231 20.8992 3.3252 21.3162 3.3252C21.7332 3.3252 23.9706 3.57489 25.9664 4.40955ZM34.5523 13.7314C35.3734 15.7328 35.3195 17.1596 35.3227 17.6202C35.3258 18.0808 34.8883 18.2921 34.5523 18.3908C34.216 18.4893 23.2441 18.5609 22.727 18.53C22.2097 18.499 21.6361 18.5076 22.3343 17.8096C23.0322 17.1114 29.9502 10.3132 30.5829 9.76228C31.2158 9.21115 31.7359 9.38167 32.0308 9.67673C32.3257 9.97159 33.7309 11.7298 34.5523 13.7314ZM34.3885 26.1651C33.5541 28.1607 32.3567 29.3207 32.0334 29.6488C31.7101 29.9767 31.2511 29.8167 30.9437 29.6488C30.6363 29.4806 22.9308 21.7626 22.5868 21.375C22.243 20.9874 21.8785 20.4093 22.8655 20.4093C23.8528 20.4093 33.5515 20.494 34.3885 20.5517C35.2258 20.6096 35.4729 21.0979 35.4729 21.5149C35.4729 21.9319 35.2232 24.1693 34.3885 26.1651ZM25.0667 34.751C23.0653 35.5721 21.6385 35.5182 21.1779 35.5214C20.7173 35.5246 20.506 35.087 20.4073 34.751C20.3088 34.4147 20.2372 23.4429 20.268 22.9258C20.2991 22.4084 20.2905 21.8348 20.9885 22.533C21.6867 23.231 28.4849 30.149 29.0358 30.7817C29.5869 31.4146 29.4164 31.9347 29.1213 32.2295C28.8265 32.5244 27.068 33.9297 25.0665 34.751H25.0667ZM12.8319 34.5872C10.8363 33.7528 9.67638 32.5554 9.34828 32.2321C9.02039 31.9088 9.18036 31.4498 9.34828 31.1424C9.51641 30.835 17.2344 23.1295 17.622 22.7855C18.0096 22.4417 18.5878 22.0772 18.5878 23.0642C18.5878 24.0515 18.503 33.7502 18.4453 34.5872C18.3874 35.4245 17.8992 35.6716 17.4821 35.6716C17.0651 35.6716 14.8278 35.4219 12.8319 34.5872ZM4.24605 25.2654C3.42492 23.264 3.47884 21.8372 3.47566 21.3766C3.47247 20.916 3.91 20.7047 4.24605 20.606C4.5823 20.5075 15.5542 20.4359 16.0713 20.4668C16.5886 20.4978 17.1622 20.4892 16.464 21.1872C15.7661 21.8854 8.84809 28.6836 8.21538 29.2345C7.58248 29.7856 7.06238 29.6151 6.76752 29.3201C6.47265 29.0252 5.06737 27.2668 4.24605 25.2652V25.2654Z" fill="white" fill-opacity="0.5"/>
<path d="M71.0618 37.6343C66.0399 37.6343 61.831 35.9125 58.4592 32.4928C55.0873 29.0731 53.3894 24.8165 53.3894 19.7467C53.3894 14.7487 55.0873 10.5637 58.4592 7.16795C61.831 3.77217 66.0399 2.07428 71.0618 2.07428C76.0838 2.07428 80.2926 3.77217 83.6645 7.16795C87.0364 10.5637 88.7342 14.7487 88.7342 19.7467C88.7342 24.7925 87.0364 29.0253 83.6645 32.4689C80.2926 35.9125 76.0838 37.6343 71.0618 37.6343ZM71.0379 33.9994H71.014C75.0555 33.9994 78.3556 32.6363 80.9144 29.8862C83.4732 27.1361 84.7645 23.7642 84.7645 19.7467C84.7645 15.8248 83.4732 12.5008 80.9144 9.77458C78.3556 7.04838 75.0555 5.68529 71.014 5.68529C66.9725 5.68529 63.6724 7.04838 61.1136 9.77458C58.5548 12.5008 57.2874 15.8248 57.2874 19.7467C57.2874 23.7642 58.5787 27.1361 61.1375 29.8862C63.6963 32.6363 66.9964 33.9994 71.0379 33.9994Z" fill="white" fill-opacity="0.5"/>
<path d="M98.2281 16.7575H98.252C98.9933 15.1074 100.117 13.8639 101.624 13.0508C103.13 12.2377 104.924 11.9747 107.005 12.2855V15.8009C104.254 15.4422 102.102 16.04 100.548 17.6184C98.9933 19.1967 98.2281 21.8511 98.2281 25.5817V36.9887H94.4736V12.5486H98.2281V16.7575Z" fill="white" fill-opacity="0.5"/>
<path d="M120.922 37.6343H120.899C117.383 37.6343 114.442 36.4147 112.098 33.9516C109.755 31.4885 108.583 28.4275 108.583 24.7447C108.583 21.0859 109.755 18.0488 112.098 15.6096C114.442 13.1704 117.383 11.9507 120.899 11.9507C125.179 11.9507 128.408 13.6247 130.584 16.9488V12.5486H134.338V36.9887H130.584V32.5407C128.455 35.9365 125.227 37.6343 120.922 37.6343ZM121.449 34.1907L121.425 34.2386C123.983 34.2386 126.16 33.3298 127.953 31.5363C129.747 29.7427 130.655 27.4948 130.655 24.8165C130.655 22.1381 129.747 19.8902 127.953 18.0966C126.16 16.3031 123.983 15.3944 121.449 15.3944C118.77 15.3944 116.57 16.2792 114.848 18.0488C113.126 19.8184 112.266 22.0664 112.266 24.8165C112.266 27.5187 113.126 29.7666 114.848 31.5363C116.57 33.3059 118.77 34.1907 121.449 34.1907Z" fill="white" fill-opacity="0.5"/>
<path d="M154.498 11.9507V11.9747C157.535 11.9747 159.926 12.9312 161.672 14.8204C163.418 16.7096 164.302 19.3162 164.302 22.6403V36.9887H160.524V23.1664C160.524 20.7511 159.926 18.8619 158.73 17.5227C157.535 16.1835 155.837 15.5139 153.637 15.5139C151.174 15.5139 149.189 16.3509 147.682 18.0488C146.176 19.7467 145.41 21.9707 145.41 24.7208V37.0126H141.656V12.5725H145.41V16.877C146.319 15.4183 147.563 14.2226 149.117 13.3138C150.671 12.4051 152.465 11.9507 154.498 11.9507Z" fill="white" fill-opacity="0.5"/>
<path d="M191.803 12.5486L195.534 12.5964V36.1995C195.534 39.5953 194.41 42.3932 192.162 44.6172C189.914 46.8412 186.997 47.9413 183.434 47.9413C178.077 47.9413 174.203 45.789 171.835 41.5084L175.159 40.2888C176.905 43.1824 179.679 44.6411 183.481 44.6411C186.04 44.6411 188.049 43.852 189.508 42.2497C190.966 40.6475 191.732 38.6148 191.803 36.1517V31.9906C189.675 35.1234 186.471 36.7017 182.19 36.7017C178.627 36.7017 175.685 35.506 173.342 33.1385C170.998 30.771 169.826 27.8296 169.826 24.3143C169.826 20.7511 170.998 17.8097 173.342 15.4661C175.685 13.1225 178.627 11.9507 182.19 11.9507C186.495 11.9507 189.699 13.5052 191.803 16.614V12.5486ZM182.764 33.3059L182.74 33.3777C185.299 33.3777 187.451 32.5168 189.221 30.7949C190.99 29.0731 191.875 26.9687 191.875 24.4577C191.875 21.899 190.99 19.7706 189.221 18.0488C187.451 16.327 185.299 15.4661 182.764 15.4661C180.086 15.4661 177.885 16.3031 176.164 17.9771C174.442 19.651 173.581 21.8033 173.581 24.4099C173.581 26.9926 174.442 29.121 176.164 30.7949C177.885 32.4689 180.086 33.3059 182.764 33.3059Z" fill="white" fill-opacity="0.5"/>
<path d="M214.163 37.6343C210.361 37.6343 207.276 36.4626 204.884 34.119C202.493 31.7754 201.297 28.6427 201.297 24.7447C201.297 21.0859 202.469 18.0488 204.789 15.6096C207.108 13.1704 210.098 11.9507 213.756 11.9507C217.559 11.9507 220.548 13.0986 222.724 15.4183C224.9 17.7379 226 20.6554 226 24.1708C226 24.9121 225.976 25.51 225.905 25.9404H205.052C205.219 28.4275 206.128 30.4362 207.754 31.9667C209.38 33.4972 211.532 34.2625 214.211 34.2625C216.196 34.2625 217.87 33.8081 219.233 32.9233C220.596 32.0385 221.6 30.9145 222.246 29.5514L225.713 30.5797C224.805 32.5646 223.37 34.2386 221.409 35.6017C219.448 36.9648 217.033 37.6343 214.163 37.6343ZM205.004 23.1664L222.222 23.1186C222.055 20.775 221.218 18.8858 219.711 17.451C218.204 16.0161 216.196 15.2987 213.685 15.2987C211.269 15.2987 209.261 16.0639 207.658 17.5944C206.056 19.1249 205.171 20.9902 205.004 23.1664Z" fill="white" fill-opacity="0.5"/>
<path fill-rule="evenodd" clip-rule="evenodd" d="M321.498 38.997C310.73 38.997 302 30.2672 302 19.4985C302 8.72975 310.73 0 321.498 0C332.267 0 340.997 8.72975 340.997 19.4985C340.997 30.2672 332.267 38.997 321.498 38.997ZM321.498 37.6042C331.498 37.6042 339.604 29.498 339.604 19.4985C339.604 9.49895 331.498 1.39275 321.498 1.39275C311.499 1.39275 303.393 9.49895 303.393 19.4985C303.393 29.498 311.499 37.6042 321.498 37.6042Z" fill="white" fill-opacity="0.5"/>
<path fill-rule="evenodd" clip-rule="evenodd" d="M306.41 12.8317C307.244 10.8361 308.442 9.67613 308.765 9.34804C309.088 9.02015 309.547 9.18011 309.855 9.34804C310.162 9.51617 317.868 17.2342 318.212 17.6218C318.555 18.0093 318.92 18.5875 317.933 18.5875C316.946 18.5875 307.247 18.5028 306.41 18.4451C305.573 18.3872 305.325 17.8989 305.325 17.4819C305.325 17.0649 305.575 14.8275 306.41 12.8317ZM315.732 4.2458C317.733 3.42468 319.16 3.4786 319.62 3.47541C320.081 3.47223 320.292 3.90975 320.391 4.2458C320.489 4.58205 320.561 15.5539 320.53 16.071C320.499 16.5883 320.508 17.162 319.81 16.4638C319.112 15.7658 312.313 8.84784 311.763 8.21514C311.211 7.58223 311.382 7.06214 311.677 6.76728C311.972 6.47241 313.73 5.06713 315.732 4.2458ZM327.966 4.40955C329.962 5.24401 331.122 6.44137 331.45 6.76469C331.778 7.08801 331.618 7.54702 331.45 7.85442C331.282 8.16182 323.564 15.8673 323.176 16.2113C322.789 16.5551 322.211 16.9196 322.211 15.9326C322.211 14.9453 322.295 5.24659 322.353 4.40955C322.411 3.57231 322.899 3.3252 323.316 3.3252C323.733 3.3252 325.971 3.57489 327.966 4.40955ZM336.552 13.7314C337.373 15.7328 337.319 17.1596 337.323 17.6202C337.326 18.0808 336.888 18.2921 336.552 18.3908C336.216 18.4893 325.244 18.5609 324.727 18.53C324.21 18.499 323.636 18.5076 324.334 17.8096C325.032 17.1114 331.95 10.3132 332.583 9.76228C333.216 9.21115 333.736 9.38167 334.031 9.67673C334.326 9.97159 335.731 11.7298 336.552 13.7314ZM336.389 26.1651C335.554 28.1607 334.357 29.3207 334.033 29.6488C333.71 29.9767 333.251 29.8167 332.944 29.6488C332.636 29.4806 324.931 21.7626 324.587 21.375C324.243 20.9874 323.878 20.4093 324.866 20.4093C325.853 20.4093 335.551 20.494 336.389 20.5517C337.226 20.6096 337.473 21.0979 337.473 21.5149C337.473 21.9319 337.223 24.1693 336.389 26.1651ZM327.067 34.751C325.065 35.5721 323.639 35.5182 323.178 35.5214C322.717 35.5246 322.506 35.087 322.407 34.751C322.309 34.4147 322.237 23.4429 322.268 22.9258C322.299 22.4084 322.291 21.8348 322.988 22.533C323.687 23.231 330.485 30.149 331.036 30.7817C331.587 31.4146 331.416 31.9347 331.121 32.2295C330.826 32.5244 329.068 33.9297 327.066 34.751H327.067ZM314.832 34.5872C312.836 33.7528 311.676 32.5554 311.348 32.2321C311.02 31.9088 311.18 31.4498 311.348 31.1424C311.516 30.835 319.234 23.1295 319.622 22.7855C320.01 22.4417 320.588 22.0772 320.588 23.0642C320.588 24.0515 320.503 33.7502 320.445 34.5872C320.387 35.4245 319.899 35.6716 319.482 35.6716C319.065 35.6716 316.828 35.4219 314.832 34.5872ZM306.246 25.2654C305.425 23.264 305.479 21.8372 305.476 21.3766C305.472 20.916 305.91 20.7047 306.246 20.606C306.582 20.5075 317.554 20.4359 318.071 20.4668C318.589 20.4978 319.162 20.4892 318.464 21.1872C317.766 21.8854 310.848 28.6836 310.215 29.2345C309.582 29.7856 309.062 29.6151 308.768 29.3201C308.473 29.0252 307.067 27.2668 306.246 25.2652V25.2654Z" fill="white" fill-opacity="0.5"/>
<path d="M373.062 37.6343C368.04 37.6343 363.831 35.9125 360.459 32.4928C357.087 29.0731 355.389 24.8165 355.389 19.7467C355.389 14.7487 357.087 10.5637 360.459 7.16795C363.831 3.77217 368.04 2.07428 373.062 2.07428C378.084 2.07428 382.293 3.77217 385.664 7.16795C389.036 10.5637 390.734 14.7487 390.734 19.7467C390.734 24.7925 389.036 29.0253 385.664 32.4689C382.293 35.9125 378.084 37.6343 373.062 37.6343ZM373.038 33.9994H373.014C377.055 33.9994 380.356 32.6363 382.914 29.8862C385.473 27.1361 386.765 23.7642 386.765 19.7467C386.765 15.8248 385.473 12.5008 382.914 9.77458C380.356 7.04838 377.055 5.68529 373.014 5.68529C368.973 5.68529 365.672 7.04838 363.114 9.77458C360.555 12.5008 359.287 15.8248 359.287 19.7467C359.287 23.7642 360.579 27.1361 363.138 29.8862C365.696 32.6363 368.996 33.9994 373.038 33.9994Z" fill="white" fill-opacity="0.5"/>
<path d="M400.228 16.7575H400.252C400.993 15.1074 402.117 13.8639 403.624 13.0508C405.13 12.2377 406.924 11.9747 409.005 12.2855V15.8009C406.254 15.4422 404.102 16.04 402.548 17.6184C400.993 19.1967 400.228 21.8511 400.228 25.5817V36.9887H396.474V12.5486H400.228V16.7575Z" fill="white" fill-opacity="0.5"/>
<path d="M422.922 37.6343H422.899C419.383 37.6343 416.442 36.4147 414.098 33.9516C411.755 31.4885 410.583 28.4275 410.583 24.7447C410.583 21.0859 411.755 18.0488 414.098 15.6096C416.442 13.1704 419.383 11.9507 422.899 11.9507C427.179 11.9507 430.408 13.6247 432.584 16.9488V12.5486H436.338V36.9887H432.584V32.5407C430.455 35.9365 427.227 37.6343 422.922 37.6343ZM423.449 34.1907L423.425 34.2386C425.983 34.2386 428.16 33.3298 429.953 31.5363C431.747 29.7427 432.655 27.4948 432.655 24.8165C432.655 22.1381 431.747 19.8902 429.953 18.0966C428.16 16.3031 425.983 15.3944 423.449 15.3944C420.77 15.3944 418.57 16.2792 416.848 18.0488C415.126 19.8184 414.266 22.0664 414.266 24.8165C414.266 27.5187 415.126 29.7666 416.848 31.5363C418.57 33.3059 420.77 34.1907 423.449 34.1907Z" fill="white" fill-opacity="0.5"/>
<path d="M456.498 11.9507V11.9747C459.535 11.9747 461.926 12.9312 463.672 14.8204C465.418 16.7096 466.302 19.3162 466.302 22.6403V36.9887H462.524V23.1664C462.524 20.7511 461.926 18.8619 460.73 17.5227C459.535 16.1835 457.837 15.5139 455.637 15.5139C453.174 15.5139 451.189 16.3509 449.682 18.0488C448.176 19.7467 447.41 21.9707 447.41 24.7208V37.0126H443.656V12.5725H447.41V16.877C448.319 15.4183 449.563 14.2226 451.117 13.3138C452.671 12.4051 454.465 11.9507 456.498 11.9507Z" fill="white" fill-opacity="0.5"/>
<path d="M493.803 12.5486L497.534 12.5964V36.1995C497.534 39.5953 496.41 42.3932 494.162 44.6172C491.914 46.8412 488.997 47.9413 485.434 47.9413C480.077 47.9413 476.203 45.789 473.835 41.5084L477.159 40.2888C478.905 43.1824 481.679 44.6411 485.481 44.6411C488.04 44.6411 490.049 43.852 491.508 42.2497C492.966 40.6475 493.732 38.6148 493.803 36.1517V31.9906C491.675 35.1234 488.471 36.7017 484.19 36.7017C480.627 36.7017 477.685 35.506 475.342 33.1385C472.998 30.771 471.826 27.8296 471.826 24.3143C471.826 20.7511 472.998 17.8097 475.342 15.4661C477.685 13.1225 480.627 11.9507 484.19 11.9507C488.495 11.9507 491.699 13.5052 493.803 16.614V12.5486ZM484.764 33.3059L484.74 33.3777C487.299 33.3777 489.451 32.5168 491.221 30.7949C492.99 29.0731 493.875 26.9687 493.875 24.4577C493.875 21.899 492.99 19.7706 491.221 18.0488C489.451 16.327 487.299 15.4661 484.764 15.4661C482.086 15.4661 479.885 16.3031 478.164 17.9771C476.442 19.651 475.581 21.8033 475.581 24.4099C475.581 26.9926 476.442 29.121 478.164 30.7949C479.885 32.4689 482.086 33.3059 484.764 33.3059Z" fill="white" fill-opacity="0.5"/>
<path d="M516.163 37.6343C512.361 37.6343 509.276 36.4626 506.884 34.119C504.493 31.7754 503.297 28.6427 503.297 24.7447C503.297 21.0859 504.469 18.0488 506.789 15.6096C509.108 13.1704 512.098 11.9507 515.756 11.9507C519.559 11.9507 522.548 13.0986 524.724 15.4183C526.9 17.7379 528 20.6554 528 24.1708C528 24.9121 527.976 25.51 527.905 25.9404H507.052C507.219 28.4275 508.128 30.4362 509.754 31.9667C511.38 33.4972 513.532 34.2625 516.211 34.2625C518.196 34.2625 519.87 33.8081 521.233 32.9233C522.596 32.0385 523.6 30.9145 524.246 29.5514L527.713 30.5797C526.805 32.5646 525.37 34.2386 523.409 35.6017C521.448 36.9648 519.033 37.6343 516.163 37.6343ZM507.004 23.1664L524.222 23.1186C524.055 20.775 523.218 18.8858 521.711 17.451C520.204 16.0161 518.196 15.2987 515.685 15.2987C513.269 15.2987 511.261 16.0639 509.658 17.5944C508.056 19.1249 507.171 20.9902 507.004 23.1664Z" fill="white" fill-opacity="0.5"/>
<path fill-rule="evenodd" clip-rule="evenodd" d="M623.498 38.997C612.73 38.997 604 30.2672 604 19.4985C604 8.72975 612.73 0 623.498 0C634.267 0 642.997 8.72975 642.997 19.4985C642.997 30.2672 634.267 38.997 623.498 38.997ZM623.498 37.6042C633.498 37.6042 641.604 29.498 641.604 19.4985C641.604 9.49895 633.498 1.39275 623.498 1.39275C613.499 1.39275 605.393 9.49895 605.393 19.4985C605.393 29.498 613.499 37.6042 623.498 37.6042Z" fill="white" fill-opacity="0.5"/>
<path fill-rule="evenodd" clip-rule="evenodd" d="M608.41 12.8317C609.244 10.8361 610.442 9.67613 610.765 9.34804C611.088 9.02015 611.547 9.18011 611.855 9.34804C612.162 9.51617 619.868 17.2342 620.212 17.6218C620.555 18.0093 620.92 18.5875 619.933 18.5875C618.946 18.5875 609.247 18.5028 608.41 18.4451C607.573 18.3872 607.325 17.8989 607.325 17.4819C607.325 17.0649 607.575 14.8275 608.41 12.8317ZM617.732 4.2458C619.733 3.42468 621.16 3.4786 621.62 3.47541C622.081 3.47223 622.292 3.90975 622.391 4.2458C622.489 4.58205 622.561 15.5539 622.53 16.071C622.499 16.5883 622.508 17.162 621.81 16.4638C621.112 15.7658 614.313 8.84784 613.763 8.21514C613.211 7.58223 613.382 7.06214 613.677 6.76728C613.972 6.47241 615.73 5.06713 617.732 4.2458ZM629.966 4.40955C631.962 5.24401 633.122 6.44137 633.45 6.76469C633.778 7.08801 633.618 7.54702 633.45 7.85442C633.282 8.16182 625.564 15.8673 625.176 16.2113C624.789 16.5551 624.211 16.9196 624.211 15.9326C624.211 14.9453 624.295 5.24659 624.353 4.40955C624.411 3.57231 624.899 3.3252 625.316 3.3252C625.733 3.3252 627.971 3.57489 629.966 4.40955ZM638.552 13.7314C639.373 15.7328 639.319 17.1596 639.323 17.6202C639.326 18.0808 638.888 18.2921 638.552 18.3908C638.216 18.4893 627.244 18.5609 626.727 18.53C626.21 18.499 625.636 18.5076 626.334 17.8096C627.032 17.1114 633.95 10.3132 634.583 9.76228C635.216 9.21115 635.736 9.38167 636.031 9.67673C636.326 9.97159 637.731 11.7298 638.552 13.7314ZM638.389 26.1651C637.554 28.1607 636.357 29.3207 636.033 29.6488C635.71 29.9767 635.251 29.8167 634.944 29.6488C634.636 29.4806 626.931 21.7626 626.587 21.375C626.243 20.9874 625.878 20.4093 626.866 20.4093C627.853 20.4093 637.551 20.494 638.389 20.5517C639.226 20.6096 639.473 21.0979 639.473 21.5149C639.473 21.9319 639.223 24.1693 638.389 26.1651ZM629.067 34.751C627.065 35.5721 625.639 35.5182 625.178 35.5214C624.717 35.5246 624.506 35.087 624.407 34.751C624.309 34.4147 624.237 23.4429 624.268 22.9258C624.299 22.4084 624.291 21.8348 624.988 22.533C625.687 23.231 632.485 30.149 633.036 30.7817C633.587 31.4146 633.416 31.9347 633.121 32.2295C632.826 32.5244 631.068 33.9297 629.066 34.751H629.067ZM616.832 34.5872C614.836 33.7528 613.676 32.5554 613.348 32.2321C613.02 31.9088 613.18 31.4498 613.348 31.1424C613.516 30.835 621.234 23.1295 621.622 22.7855C622.01 22.4417 622.588 22.0772 622.588 23.0642C622.588 24.0515 622.503 33.7502 622.445 34.5872C622.387 35.4245 621.899 35.6716 621.482 35.6716C621.065 35.6716 618.828 35.4219 616.832 34.5872ZM608.246 25.2654C607.425 23.264 607.479 21.8372 607.476 21.3766C607.472 20.916 607.91 20.7047 608.246 20.606C608.582 20.5075 619.554 20.4359 620.071 20.4668C620.589 20.4978 621.162 20.4892 620.464 21.1872C619.766 21.8854 612.848 28.6836 612.215 29.2345C611.582 29.7856 611.062 29.6151 610.768 29.3201C610.473 29.0252 609.067 27.2668 608.246 25.2652V25.2654Z" fill="white" fill-opacity="0.5"/>
<path d="M675.062 37.6343C670.04 37.6343 665.831 35.9125 662.459 32.4928C659.087 29.0731 657.389 24.8165 657.389 19.7467C657.389 14.7487 659.087 10.5637 662.459 7.16795C665.831 3.77217 670.04 2.07428 675.062 2.07428C680.084 2.07428 684.293 3.77217 687.664 7.16795C691.036 10.5637 692.734 14.7487 692.734 19.7467C692.734 24.7925 691.036 29.0253 687.664 32.4689C684.293 35.9125 680.084 37.6343 675.062 37.6343ZM675.038 33.9994H675.014C679.055 33.9994 682.356 32.6363 684.914 29.8862C687.473 27.1361 688.765 23.7642 688.765 19.7467C688.765 15.8248 687.473 12.5008 684.914 9.77458C682.356 7.04838 679.055 5.68529 675.014 5.68529C670.973 5.68529 667.672 7.04838 665.114 9.77458C662.555 12.5008 661.287 15.8248 661.287 19.7467C661.287 23.7642 662.579 27.1361 665.138 29.8862C667.696 32.6363 670.996 33.9994 675.038 33.9994Z" fill="white" fill-opacity="0.5"/>
<path d="M702.228 16.7575H702.252C702.993 15.1074 704.117 13.8639 705.624 13.0508C707.13 12.2377 708.924 11.9747 711.005 12.2855V15.8009C708.254 15.4422 706.102 16.04 704.548 17.6184C702.993 19.1967 702.228 21.8511 702.228 25.5817V36.9887H698.474V12.5486H702.228V16.7575Z" fill="white" fill-opacity="0.5"/>
<path d="M724.922 37.6343H724.899C721.383 37.6343 718.442 36.4147 716.098 33.9516C713.755 31.4885 712.583 28.4275 712.583 24.7447C712.583 21.0859 713.755 18.0488 716.098 15.6096C718.442 13.1704 721.383 11.9507 724.899 11.9507C729.179 11.9507 732.408 13.6247 734.584 16.9488V12.5486H738.338V36.9887H734.584V32.5407C732.455 35.9365 729.227 37.6343 724.922 37.6343ZM725.449 34.1907L725.425 34.2386C727.983 34.2386 730.16 33.3298 731.953 31.5363C733.747 29.7427 734.655 27.4948 734.655 24.8165C734.655 22.1381 733.747 19.8902 731.953 18.0966C730.16 16.3031 727.983 15.3944 725.449 15.3944C722.77 15.3944 720.57 16.2792 718.848 18.0488C717.126 19.8184 716.266 22.0664 716.266 24.8165C716.266 27.5187 717.126 29.7666 718.848 31.5363C720.57 33.3059 722.77 34.1907 725.449 34.1907Z" fill="white" fill-opacity="0.5"/>
<path d="M758.498 11.9507V11.9747C761.535 11.9747 763.926 12.9312 765.672 14.8204C767.418 16.7096 768.302 19.3162 768.302 22.6403V36.9887H764.524V23.1664C764.524 20.7511 763.926 18.8619 762.73 17.5227C761.535 16.1835 759.837 15.5139 757.637 15.5139C755.174 15.5139 753.189 16.3509 751.682 18.0488C750.176 19.7467 749.41 21.9707 749.41 24.7208V37.0126H745.656V12.5725H749.41V16.877C750.319 15.4183 751.563 14.2226 753.117 13.3138C754.671 12.4051 756.465 11.9507 758.498 11.9507Z" fill="white" fill-opacity="0.5"/>
<path d="M795.803 12.5486L799.534 12.5964V36.1995C799.534 39.5953 798.41 42.3932 796.162 44.6172C793.914 46.8412 790.997 47.9413 787.434 47.9413C782.077 47.9413 778.203 45.789 775.835 41.5084L779.159 40.2888C780.905 43.1824 783.679 44.6411 787.481 44.6411C790.04 44.6411 792.049 43.852 793.508 42.2497C794.966 40.6475 795.732 38.6148 795.803 36.1517V31.9906C793.675 35.1234 790.471 36.7017 786.19 36.7017C782.627 36.7017 779.685 35.506 777.342 33.1385C774.998 30.771 773.826 27.8296 773.826 24.3143C773.826 20.7511 774.998 17.8097 777.342 15.4661C779.685 13.1225 782.627 11.9507 786.19 11.9507C790.495 11.9507 793.699 13.5052 795.803 16.614V12.5486ZM786.764 33.3059L786.74 33.3777C789.299 33.3777 791.451 32.5168 793.221 30.7949C794.99 29.0731 795.875 26.9687 795.875 24.4577C795.875 21.899 794.99 19.7706 793.221 18.0488C791.451 16.327 789.299 15.4661 786.764 15.4661C784.086 15.4661 781.885 16.3031 780.164 17.9771C778.442 19.651 777.581 21.8033 777.581 24.4099C777.581 26.9926 778.442 29.121 780.164 30.7949C781.885 32.4689 784.086 33.3059 786.764 33.3059Z" fill="white" fill-opacity="0.5"/>
<path d="M818.163 37.6343C814.361 37.6343 811.276 36.4626 808.884 34.119C806.493 31.7754 805.297 28.6427 805.297 24.7447C805.297 21.0859 806.469 18.0488 808.789 15.6096C811.108 13.1704 814.098 11.9507 817.756 11.9507C821.559 11.9507 824.548 13.0986 826.724 15.4183C828.9 17.7379 830 20.6554 830 24.1708C830 24.9121 829.976 25.51 829.905 25.9404H809.052C809.219 28.4275 810.128 30.4362 811.754 31.9667C813.38 33.4972 815.532 34.2625 818.211 34.2625C820.196 34.2625 821.87 33.8081 823.233 32.9233C824.596 32.0385 825.6 30.9145 826.246 29.5514L829.713 30.5797C828.805 32.5646 827.37 34.2386 825.409 35.6017C823.448 36.9648 821.033 37.6343 818.163 37.6343ZM809.004 23.1664L826.222 23.1186C826.055 20.775 825.218 18.8858 823.711 17.451C822.204 16.0161 820.196 15.2987 817.685 15.2987C815.269 15.2987 813.261 16.0639 811.658 17.5944C810.056 19.1249 809.171 20.9902 809.004 23.1664Z" fill="white" fill-opacity="0.5"/>
<path fill-rule="evenodd" clip-rule="evenodd" d="M925.498 38.997C914.73 38.997 906 30.2672 906 19.4985C906 8.72975 914.73 0 925.498 0C936.267 0 944.997 8.72975 944.997 19.4985C944.997 30.2672 936.267 38.997 925.498 38.997ZM925.498 37.6042C935.498 37.6042 943.604 29.498 943.604 19.4985C943.604 9.49895 935.498 1.39275 925.498 1.39275C915.499 1.39275 907.393 9.49895 907.393 19.4985C907.393 29.498 915.499 37.6042 925.498 37.6042Z" fill="white" fill-opacity="0.5"/>
<path fill-rule="evenodd" clip-rule="evenodd" d="M910.41 12.8317C911.244 10.8361 912.442 9.67613 912.765 9.34804C913.088 9.02015 913.547 9.18011 913.855 9.34804C914.162 9.51617 921.868 17.2342 922.212 17.6218C922.555 18.0093 922.92 18.5875 921.933 18.5875C920.946 18.5875 911.247 18.5028 910.41 18.4451C909.573 18.3872 909.325 17.8989 909.325 17.4819C909.325 17.0649 909.575 14.8275 910.41 12.8317ZM919.732 4.2458C921.733 3.42468 923.16 3.4786 923.62 3.47541C924.081 3.47223 924.292 3.90975 924.391 4.2458C924.489 4.58205 924.561 15.5539 924.53 16.071C924.499 16.5883 924.508 17.162 923.81 16.4638C923.112 15.7658 916.313 8.84784 915.762 8.21514C915.211 7.58223 915.382 7.06214 915.677 6.76728C915.972 6.47241 917.73 5.06713 919.732 4.2458ZM931.966 4.40955C933.962 5.24401 935.122 6.44137 935.45 6.76469C935.778 7.08801 935.618 7.54702 935.45 7.85442C935.282 8.16182 927.564 15.8673 927.176 16.2113C926.789 16.5551 926.211 16.9196 926.211 15.9326C926.211 14.9453 926.295 5.24659 926.353 4.40955C926.411 3.57231 926.899 3.3252 927.316 3.3252C927.733 3.3252 929.971 3.57489 931.966 4.40955ZM940.552 13.7314C941.373 15.7328 941.319 17.1596 941.323 17.6202C941.326 18.0808 940.888 18.2921 940.552 18.3908C940.216 18.4893 929.244 18.5609 928.727 18.53C928.21 18.499 927.636 18.5076 928.334 17.8096C929.032 17.1114 935.95 10.3132 936.583 9.76228C937.216 9.21115 937.736 9.38167 938.031 9.67673C938.326 9.97159 939.731 11.7298 940.552 13.7314ZM940.388 26.1651C939.554 28.1607 938.357 29.3207 938.033 29.6488C937.71 29.9767 937.251 29.8167 936.944 29.6488C936.636 29.4806 928.931 21.7626 928.587 21.375C928.243 20.9874 927.878 20.4093 928.865 20.4093C929.853 20.4093 939.551 20.494 940.388 20.5517C941.226 20.6096 941.473 21.0979 941.473 21.5149C941.473 21.9319 941.223 24.1693 940.388 26.1651ZM931.067 34.751C929.065 35.5721 927.638 35.5182 927.178 35.5214C926.717 35.5246 926.506 35.087 926.407 34.751C926.309 34.4147 926.237 23.4429 926.268 22.9258C926.299 22.4084 926.29 21.8348 926.988 22.533C927.687 23.231 934.485 30.149 935.036 30.7817C935.587 31.4146 935.416 31.9347 935.121 32.2295C934.826 32.5244 933.068 33.9297 931.066 34.751H931.067ZM918.832 34.5872C916.836 33.7528 915.676 32.5554 915.348 32.2321C915.02 31.9088 915.18 31.4498 915.348 31.1424C915.516 30.835 923.234 23.1295 923.622 22.7855C924.01 22.4417 924.588 22.0772 924.588 23.0642C924.588 24.0515 924.503 33.7502 924.445 34.5872C924.387 35.4245 923.899 35.6716 923.482 35.6716C923.065 35.6716 920.828 35.4219 918.832 34.5872ZM910.246 25.2654C909.425 23.264 909.479 21.8372 909.476 21.3766C909.472 20.916 909.91 20.7047 910.246 20.606C910.582 20.5075 921.554 20.4359 922.071 20.4668C922.589 20.4978 923.162 20.4892 922.464 21.1872C921.766 21.8854 914.848 28.6836 914.215 29.2345C913.582 29.7856 913.062 29.6151 912.767 29.3201C912.473 29.0252 911.067 27.2668 910.246 25.2652V25.2654Z" fill="white" fill-opacity="0.5"/>
<path d="M977.062 37.6343C972.04 37.6343 967.831 35.9125 964.459 32.4928C961.087 29.0731 959.389 24.8165 959.389 19.7467C959.389 14.7487 961.087 10.5637 964.459 7.16795C967.831 3.77217 972.04 2.07428 977.062 2.07428C982.084 2.07428 986.293 3.77217 989.665 7.16795C993.036 10.5637 994.734 14.7487 994.734 19.7467C994.734 24.7925 993.036 29.0253 989.665 32.4689C986.293 35.9125 982.084 37.6343 977.062 37.6343ZM977.038 33.9994H977.014C981.055 33.9994 984.356 32.6363 986.914 29.8862C989.473 27.1361 990.765 23.7642 990.765 19.7467C990.765 15.8248 989.473 12.5008 986.914 9.77458C984.356 7.04838 981.055 5.68529 977.014 5.68529C972.973 5.68529 969.672 7.04838 967.114 9.77458C964.555 12.5008 963.287 15.8248 963.287 19.7467C963.287 23.7642 964.579 27.1361 967.138 29.8862C969.696 32.6363 972.996 33.9994 977.038 33.9994Z" fill="white" fill-opacity="0.5"/>
<path d="M1004.23 16.7575H1004.25C1004.99 15.1074 1006.12 13.8639 1007.62 13.0508C1009.13 12.2377 1010.92 11.9747 1013 12.2855V15.8009C1010.25 15.4422 1008.1 16.04 1006.55 17.6184C1004.99 19.1967 1004.23 21.8511 1004.23 25.5817V36.9887H1000.47V12.5486H1004.23V16.7575Z" fill="white" fill-opacity="0.5"/>
<path d="M1026.92 37.6343H1026.9C1023.38 37.6343 1020.44 36.4147 1018.1 33.9516C1015.75 31.4885 1014.58 28.4275 1014.58 24.7447C1014.58 21.0859 1015.75 18.0488 1018.1 15.6096C1020.44 13.1704 1023.38 11.9507 1026.9 11.9507C1031.18 11.9507 1034.41 13.6247 1036.58 16.9488V12.5486H1040.34V36.9887H1036.58V32.5407C1034.46 35.9365 1031.23 37.6343 1026.92 37.6343ZM1027.45 34.1907L1027.42 34.2386C1029.98 34.2386 1032.16 33.3298 1033.95 31.5363C1035.75 29.7427 1036.66 27.4948 1036.66 24.8165C1036.66 22.1381 1035.75 19.8902 1033.95 18.0966C1032.16 16.3031 1029.98 15.3944 1027.45 15.3944C1024.77 15.3944 1022.57 16.2792 1020.85 18.0488C1019.13 19.8184 1018.27 22.0664 1018.27 24.8165C1018.27 27.5187 1019.13 29.7666 1020.85 31.5363C1022.57 33.3059 1024.77 34.1907 1027.45 34.1907Z" fill="white" fill-opacity="0.5"/>
<path d="M1060.5 11.9507V11.9747C1063.53 11.9747 1065.93 12.9312 1067.67 14.8204C1069.42 16.7096 1070.3 19.3162 1070.3 22.6403V36.9887H1066.52V23.1664C1066.52 20.7511 1065.93 18.8619 1064.73 17.5227C1063.53 16.1835 1061.84 15.5139 1059.64 15.5139C1057.17 15.5139 1055.19 16.3509 1053.68 18.0488C1052.18 19.7467 1051.41 21.9707 1051.41 24.7208V37.0126H1047.66V12.5725H1051.41V16.877C1052.32 15.4183 1053.56 14.2226 1055.12 13.3138C1056.67 12.4051 1058.46 11.9507 1060.5 11.9507Z" fill="white" fill-opacity="0.5"/>
<path d="M1097.8 12.5486L1101.53 12.5964V36.1995C1101.53 39.5953 1100.41 42.3932 1098.16 44.6172C1095.91 46.8412 1093 47.9413 1089.43 47.9413C1084.08 47.9413 1080.2 45.789 1077.84 41.5084L1081.16 40.2888C1082.91 43.1824 1085.68 44.6411 1089.48 44.6411C1092.04 44.6411 1094.05 43.852 1095.51 42.2497C1096.97 40.6475 1097.73 38.6148 1097.8 36.1517V31.9906C1095.68 35.1234 1092.47 36.7017 1088.19 36.7017C1084.63 36.7017 1081.69 35.506 1079.34 33.1385C1077 30.771 1075.83 27.8296 1075.83 24.3143C1075.83 20.7511 1077 17.8097 1079.34 15.4661C1081.69 13.1225 1084.63 11.9507 1088.19 11.9507C1092.49 11.9507 1095.7 13.5052 1097.8 16.614V12.5486ZM1088.76 33.3059L1088.74 33.3777C1091.3 33.3777 1093.45 32.5168 1095.22 30.7949C1096.99 29.0731 1097.88 26.9687 1097.88 24.4577C1097.88 21.899 1096.99 19.7706 1095.22 18.0488C1093.45 16.327 1091.3 15.4661 1088.76 15.4661C1086.09 15.4661 1083.89 16.3031 1082.16 17.9771C1080.44 19.651 1079.58 21.8033 1079.58 24.4099C1079.58 26.9926 1080.44 29.121 1082.16 30.7949C1083.89 32.4689 1086.09 33.3059 1088.76 33.3059Z" fill="white" fill-opacity="0.5"/>
<path d="M1120.16 37.6343C1116.36 37.6343 1113.28 36.4626 1110.88 34.119C1108.49 31.7754 1107.3 28.6427 1107.3 24.7447C1107.3 21.0859 1108.47 18.0488 1110.79 15.6096C1113.11 13.1704 1116.1 11.9507 1119.76 11.9507C1123.56 11.9507 1126.55 13.0986 1128.72 15.4183C1130.9 17.7379 1132 20.6554 1132 24.1708C1132 24.9121 1131.98 25.51 1131.9 25.9404H1111.05C1111.22 28.4275 1112.13 30.4362 1113.75 31.9667C1115.38 33.4972 1117.53 34.2625 1120.21 34.2625C1122.2 34.2625 1123.87 33.8081 1125.23 32.9233C1126.6 32.0385 1127.6 30.9145 1128.25 29.5514L1131.71 30.5797C1130.8 32.5646 1129.37 34.2386 1127.41 35.6017C1125.45 36.9648 1123.03 37.6343 1120.16 37.6343ZM1111 23.1664L1128.22 23.1186C1128.05 20.775 1127.22 18.8858 1125.71 17.451C1124.2 16.0161 1122.2 15.2987 1119.68 15.2987C1117.27 15.2987 1115.26 16.0639 1113.66 17.5944C1112.06 19.1249 1111.17 20.9902 1111 23.1664Z" fill="white" fill-opacity="0.5"/>
<path fill-rule="evenodd" clip-rule="evenodd" d="M1227.5 38.997C1216.73 38.997 1208 30.2672 1208 19.4985C1208 8.72975 1216.73 0 1227.5 0C1238.27 0 1247 8.72975 1247 19.4985C1247 30.2672 1238.27 38.997 1227.5 38.997ZM1227.5 37.6042C1237.5 37.6042 1245.6 29.498 1245.6 19.4985C1245.6 9.49895 1237.5 1.39275 1227.5 1.39275C1217.5 1.39275 1209.39 9.49895 1209.39 19.4985C1209.39 29.498 1217.5 37.6042 1227.5 37.6042Z" fill="white" fill-opacity="0.5"/>
<path fill-rule="evenodd" clip-rule="evenodd" d="M1212.41 12.8317C1213.24 10.8361 1214.44 9.67613 1214.76 9.34804C1215.09 9.02015 1215.55 9.18011 1215.85 9.34804C1216.16 9.51617 1223.87 17.2342 1224.21 17.6218C1224.56 18.0093 1224.92 18.5875 1223.93 18.5875C1222.95 18.5875 1213.25 18.5028 1212.41 18.4451C1211.57 18.3872 1211.33 17.8989 1211.33 17.4819C1211.33 17.0649 1211.58 14.8275 1212.41 12.8317ZM1221.73 4.2458C1223.73 3.42468 1225.16 3.4786 1225.62 3.47541C1226.08 3.47223 1226.29 3.90975 1226.39 4.2458C1226.49 4.58205 1226.56 15.5539 1226.53 16.071C1226.5 16.5883 1226.51 17.162 1225.81 16.4638C1225.11 15.7658 1218.31 8.84784 1217.76 8.21514C1217.21 7.58223 1217.38 7.06214 1217.68 6.76728C1217.97 6.47241 1219.73 5.06713 1221.73 4.2458ZM1233.97 4.40955C1235.96 5.24401 1237.12 6.44137 1237.45 6.76469C1237.78 7.08801 1237.62 7.54702 1237.45 7.85442C1237.28 8.16182 1229.56 15.8673 1229.18 16.2113C1228.79 16.5551 1228.21 16.9196 1228.21 15.9326C1228.21 14.9453 1228.3 5.24659 1228.35 4.40955C1228.41 3.57231 1228.9 3.3252 1229.32 3.3252C1229.73 3.3252 1231.97 3.57489 1233.97 4.40955ZM1242.55 13.7314C1243.37 15.7328 1243.32 17.1596 1243.32 17.6202C1243.33 18.0808 1242.89 18.2921 1242.55 18.3908C1242.22 18.4893 1231.24 18.5609 1230.73 18.53C1230.21 18.499 1229.64 18.5076 1230.33 17.8096C1231.03 17.1114 1237.95 10.3132 1238.58 9.76228C1239.22 9.21115 1239.74 9.38167 1240.03 9.67673C1240.33 9.97159 1241.73 11.7298 1242.55 13.7314ZM1242.39 26.1651C1241.55 28.1607 1240.36 29.3207 1240.03 29.6488C1239.71 29.9767 1239.25 29.8167 1238.94 29.6488C1238.64 29.4806 1230.93 21.7626 1230.59 21.375C1230.24 20.9874 1229.88 20.4093 1230.87 20.4093C1231.85 20.4093 1241.55 20.494 1242.39 20.5517C1243.23 20.6096 1243.47 21.0979 1243.47 21.5149C1243.47 21.9319 1243.22 24.1693 1242.39 26.1651ZM1233.07 34.751C1231.07 35.5721 1229.64 35.5182 1229.18 35.5214C1228.72 35.5246 1228.51 35.087 1228.41 34.751C1228.31 34.4147 1228.24 23.4429 1228.27 22.9258C1228.3 22.4084 1228.29 21.8348 1228.99 22.533C1229.69 23.231 1236.48 30.149 1237.04 30.7817C1237.59 31.4146 1237.42 31.9347 1237.12 32.2295C1236.83 32.5244 1235.07 33.9297 1233.07 34.751H1233.07ZM1220.83 34.5872C1218.84 33.7528 1217.68 32.5554 1217.35 32.2321C1217.02 31.9088 1217.18 31.4498 1217.35 31.1424C1217.52 30.835 1225.23 23.1295 1225.62 22.7855C1226.01 22.4417 1226.59 22.0772 1226.59 23.0642C1226.59 24.0515 1226.5 33.7502 1226.45 34.5872C1226.39 35.4245 1225.9 35.6716 1225.48 35.6716C1225.07 35.6716 1222.83 35.4219 1220.83 34.5872ZM1212.25 25.2654C1211.42 23.264 1211.48 21.8372 1211.48 21.3766C1211.47 20.916 1211.91 20.7047 1212.25 20.606C1212.58 20.5075 1223.55 20.4359 1224.07 20.4668C1224.59 20.4978 1225.16 20.4892 1224.46 21.1872C1223.77 21.8854 1216.85 28.6836 1216.22 29.2345C1215.58 29.7856 1215.06 29.6151 1214.77 29.3201C1214.47 29.0252 1213.07 27.2668 1212.25 25.2652V25.2654Z" fill="white" fill-opacity="0.5"/>
<path d="M1279.06 37.6343C1274.04 37.6343 1269.83 35.9125 1266.46 32.4928C1263.09 29.0731 1261.39 24.8165 1261.39 19.7467C1261.39 14.7487 1263.09 10.5637 1266.46 7.16795C1269.83 3.77217 1274.04 2.07428 1279.06 2.07428C1284.08 2.07428 1288.29 3.77217 1291.66 7.16795C1295.04 10.5637 1296.73 14.7487 1296.73 19.7467C1296.73 24.7925 1295.04 29.0253 1291.66 32.4689C1288.29 35.9125 1284.08 37.6343 1279.06 37.6343ZM1279.04 33.9994H1279.01C1283.06 33.9994 1286.36 32.6363 1288.91 29.8862C1291.47 27.1361 1292.76 23.7642 1292.76 19.7467C1292.76 15.8248 1291.47 12.5008 1288.91 9.77458C1286.36 7.04838 1283.06 5.68529 1279.01 5.68529C1274.97 5.68529 1271.67 7.04838 1269.11 9.77458C1266.55 12.5008 1265.29 15.8248 1265.29 19.7467C1265.29 23.7642 1266.58 27.1361 1269.14 29.8862C1271.7 32.6363 1275 33.9994 1279.04 33.9994Z" fill="white" fill-opacity="0.5"/>
<path d="M1306.23 16.7575H1306.25C1306.99 15.1074 1308.12 13.8639 1309.62 13.0508C1311.13 12.2377 1312.92 11.9747 1315 12.2855V15.8009C1312.25 15.4422 1310.1 16.04 1308.55 17.6184C1306.99 19.1967 1306.23 21.8511 1306.23 25.5817V36.9887H1302.47V12.5486H1306.23V16.7575Z" fill="white" fill-opacity="0.5"/>
<path d="M1328.92 37.6343H1328.9C1325.38 37.6343 1322.44 36.4147 1320.1 33.9516C1317.75 31.4885 1316.58 28.4275 1316.58 24.7447C1316.58 21.0859 1317.75 18.0488 1320.1 15.6096C1322.44 13.1704 1325.38 11.9507 1328.9 11.9507C1333.18 11.9507 1336.41 13.6247 1338.58 16.9488V12.5486H1342.34V36.9887H1338.58V32.5407C1336.46 35.9365 1333.23 37.6343 1328.92 37.6343ZM1329.45 34.1907L1329.42 34.2386C1331.98 34.2386 1334.16 33.3298 1335.95 31.5363C1337.75 29.7427 1338.66 27.4948 1338.66 24.8165C1338.66 22.1381 1337.75 19.8902 1335.95 18.0966C1334.16 16.3031 1331.98 15.3944 1329.45 15.3944C1326.77 15.3944 1324.57 16.2792 1322.85 18.0488C1321.13 19.8184 1320.27 22.0664 1320.27 24.8165C1320.27 27.5187 1321.13 29.7666 1322.85 31.5363C1324.57 33.3059 1326.77 34.1907 1329.45 34.1907Z" fill="white" fill-opacity="0.5"/>
<path d="M1362.5 11.9507V11.9747C1365.53 11.9747 1367.93 12.9312 1369.67 14.8204C1371.42 16.7096 1372.3 19.3162 1372.3 22.6403V36.9887H1368.52V23.1664C1368.52 20.7511 1367.93 18.8619 1366.73 17.5227C1365.53 16.1835 1363.84 15.5139 1361.64 15.5139C1359.17 15.5139 1357.19 16.3509 1355.68 18.0488C1354.18 19.7467 1353.41 21.9707 1353.41 24.7208V37.0126H1349.66V12.5725H1353.41V16.877C1354.32 15.4183 1355.56 14.2226 1357.12 13.3138C1358.67 12.4051 1360.46 11.9507 1362.5 11.9507Z" fill="white" fill-opacity="0.5"/>
<path d="M1399.8 12.5486L1403.53 12.5964V36.1995C1403.53 39.5953 1402.41 42.3932 1400.16 44.6172C1397.91 46.8412 1395 47.9413 1391.43 47.9413C1386.08 47.9413 1382.2 45.789 1379.84 41.5084L1383.16 40.2888C1384.91 43.1824 1387.68 44.6411 1391.48 44.6411C1394.04 44.6411 1396.05 43.852 1397.51 42.2497C1398.97 40.6475 1399.73 38.6148 1399.8 36.1517V31.9906C1397.68 35.1234 1394.47 36.7017 1390.19 36.7017C1386.63 36.7017 1383.69 35.506 1381.34 33.1385C1379 30.771 1377.83 27.8296 1377.83 24.3143C1377.83 20.7511 1379 17.8097 1381.34 15.4661C1383.69 13.1225 1386.63 11.9507 1390.19 11.9507C1394.49 11.9507 1397.7 13.5052 1399.8 16.614V12.5486ZM1390.76 33.3059L1390.74 33.3777C1393.3 33.3777 1395.45 32.5168 1397.22 30.7949C1398.99 29.0731 1399.88 26.9687 1399.88 24.4577C1399.88 21.899 1398.99 19.7706 1397.22 18.0488C1395.45 16.327 1393.3 15.4661 1390.76 15.4661C1388.09 15.4661 1385.89 16.3031 1384.16 17.9771C1382.44 19.651 1381.58 21.8033 1381.58 24.4099C1381.58 26.9926 1382.44 29.121 1384.16 30.7949C1385.89 32.4689 1388.09 33.3059 1390.76 33.3059Z" fill="white" fill-opacity="0.5"/>
<path d="M1422.16 37.6343C1418.36 37.6343 1415.28 36.4626 1412.88 34.119C1410.49 31.7754 1409.3 28.6427 1409.3 24.7447C1409.3 21.0859 1410.47 18.0488 1412.79 15.6096C1415.11 13.1704 1418.1 11.9507 1421.76 11.9507C1425.56 11.9507 1428.55 13.0986 1430.72 15.4183C1432.9 17.7379 1434 20.6554 1434 24.1708C1434 24.9121 1433.98 25.51 1433.9 25.9404H1413.05C1413.22 28.4275 1414.13 30.4362 1415.75 31.9667C1417.38 33.4972 1419.53 34.2625 1422.21 34.2625C1424.2 34.2625 1425.87 33.8081 1427.23 32.9233C1428.6 32.0385 1429.6 30.9145 1430.25 29.5514L1433.71 30.5797C1432.8 32.5646 1431.37 34.2386 1429.41 35.6017C1427.45 36.9648 1425.03 37.6343 1422.16 37.6343ZM1413 23.1664L1430.22 23.1186C1430.05 20.775 1429.22 18.8858 1427.71 17.451C1426.2 16.0161 1424.2 15.2987 1421.68 15.2987C1419.27 15.2987 1417.26 16.0639 1415.66 17.5944C1414.06 19.1249 1413.17 20.9902 1413 23.1664Z" fill="white" fill-opacity="0.5"/>
</svg>
