<svg width="519" height="368" viewBox="0 0 519 368" fill="none" xmlns="http://www.w3.org/2000/svg">
<path d="M75.47 143.254C55.2052 143.254 39.6438 151.438 28.8013 167.798V147.007H-0.000183105V367.304H28.8013V270.87C39.6438 287.04 55.2052 295.126 75.47 295.126C93.7802 295.126 109.425 287.809 122.406 273.185C135.379 258.561 141.877 240.556 141.877 219.194C141.877 197.832 135.387 180.075 122.406 165.343C109.425 150.62 93.7802 143.254 75.47 143.254ZM101.072 252.253C93.0701 261.016 83.0293 265.389 70.9345 265.389C58.8397 265.389 48.7989 261.016 40.7968 252.253C32.7947 243.499 28.7936 232.479 28.7936 219.194C28.7936 205.909 32.7947 194.897 40.7968 186.134C48.7989 177.38 58.8397 172.998 70.9345 172.998C83.0293 172.998 93.0701 177.38 101.072 186.134C109.074 194.897 113.075 205.909 113.075 219.194C113.075 232.479 109.074 243.499 101.072 252.253Z" fill="#FFF6B3"/>
<path d="M196.807 80.5991H168.005V291.373H196.807V80.5991Z" fill="#FFF6B3"/>
<path d="M335.744 147.007V167.509C324.894 151.339 309.341 143.254 289.076 143.254C270.766 143.254 255.113 150.57 242.14 165.194C229.159 179.827 222.669 197.824 222.669 219.186C222.669 240.547 229.159 258.313 242.14 273.036C255.113 287.76 270.766 295.126 289.076 295.126C309.341 295.126 324.902 286.95 335.744 270.581V291.372H364.546V147.007H335.744Z" fill="#FFF6B3"/>
<path d="M488.013 147.007L453.875 251.815L414.139 147.007H382.673L439.207 288.777L437.87 291.662C434.312 301.665 429.777 309.031 424.271 313.751C418.759 318.463 411.474 320.538 402.403 319.96V349.125C432.976 351.043 454.676 333.344 467.474 296.002L518.678 147.016H488.006L488.013 147.007Z" fill="#FFF6B3"/>
<g filter="url(#filter0_d_302_2045)">
<path d="M329.901 221.885L273.901 186.702V257.076L329.901 221.885Z" fill="#1D1D1D"/>
</g>
<path d="M60.3298 339.657C60.3298 340.868 60.9966 341.816 62.3234 342.515C63.6503 343.214 65.2735 343.82 67.1863 344.324C69.0992 344.828 71.0187 345.42 72.9518 346.099C74.8848 346.779 76.5148 347.922 77.8484 349.543C79.1752 351.163 79.842 353.201 79.842 355.662C79.842 359.139 78.5017 361.869 75.8143 363.846C73.1269 365.83 69.7525 366.818 65.6911 366.818C62.1079 366.818 59.0366 366.072 56.4771 364.572C53.911 363.08 52.052 361.002 50.8936 358.345L57.6424 354.431C58.9019 357.908 61.5825 359.65 65.6978 359.65C69.8131 359.65 71.8674 358.298 71.8674 355.595C71.8674 354.438 71.2006 353.497 69.8737 352.77C68.5401 352.044 66.9236 351.432 65.0108 350.921C63.098 350.417 61.1784 349.825 59.2454 349.146C57.3123 348.473 55.6756 347.35 54.3488 345.777C53.0152 344.21 52.3551 342.212 52.3551 339.798C52.3551 336.463 53.6214 333.786 56.1673 331.755C58.7065 329.725 61.8654 328.716 65.6372 328.716C68.6344 328.716 71.3083 329.382 73.6522 330.706C75.9961 332.038 77.8012 333.88 79.0607 336.248L72.4601 339.939C71.2006 337.189 68.9308 335.81 65.6372 335.81C64.1352 335.81 62.8824 336.133 61.8654 336.786C60.8484 337.438 60.3432 338.393 60.3432 339.65L60.3298 339.657Z" fill="#FFF6B3"/>
<path d="M105.389 328.722C109.552 328.722 112.913 330.054 115.472 332.703C118.038 335.36 119.318 339.005 119.318 343.645V365.884H111.485V344.438C111.485 341.735 110.757 339.657 109.309 338.211C107.861 336.765 105.874 336.039 103.362 336.039C100.607 336.039 98.3777 336.9 96.6871 338.608C94.9965 340.323 94.1479 342.945 94.1479 346.469V365.884H86.3147V315.172H94.1479V334.297C96.5187 330.578 100.264 328.722 105.396 328.722H105.389Z" fill="#FFF6B3"/>
<path d="M144.858 366.825C139.537 366.825 135.011 364.989 131.293 361.318C127.569 357.646 125.71 353.134 125.71 347.774C125.71 342.414 127.569 337.895 131.293 334.23C135.018 330.559 139.537 328.723 144.858 328.723C150.179 328.723 154.759 330.559 158.464 334.23C162.161 337.902 164.013 342.414 164.013 347.774C164.013 353.134 162.161 357.653 158.464 361.318C154.766 364.989 150.226 366.825 144.858 366.825ZM136.803 355.958C138.978 358.13 141.666 359.22 144.858 359.22C148.051 359.22 150.738 358.13 152.914 355.958C155.089 353.786 156.18 351.056 156.18 347.774C156.18 344.492 155.089 341.762 152.914 339.59C150.738 337.418 148.051 336.328 144.858 336.328C141.666 336.328 138.978 337.418 136.803 339.59C134.627 341.762 133.536 344.492 133.536 347.774C133.536 351.056 134.627 353.786 136.803 355.958Z" fill="#FFF6B3"/>
<path d="M211.471 329.664H219.742L208.352 365.884H200.66L193.117 341.473L185.499 365.884H177.807L166.418 329.664H174.689L181.727 354.66L189.345 329.664H196.821L204.365 354.66L211.477 329.664H211.471Z" fill="#FFF6B3"/>
<path d="M251.519 335.75C253.499 331.258 257.224 329.012 262.693 329.012V337.485C259.696 337.29 257.082 338.003 254.86 339.623C252.637 341.244 251.519 343.914 251.519 347.626V365.884H243.686V329.664H251.519V335.75Z" fill="#FFF6B3"/>
<path d="M272.998 351.103C273.577 353.853 274.911 355.971 276.985 357.444C279.066 358.917 281.606 359.657 284.603 359.657C288.765 359.657 291.884 358.164 293.965 355.164L300.424 358.93C296.841 364.196 291.547 366.825 284.536 366.825C278.635 366.825 273.873 365.03 270.243 361.425C266.613 357.827 264.801 353.275 264.801 347.767C264.801 342.26 266.593 337.828 270.169 334.183C273.745 330.538 278.346 328.716 283.956 328.716C289.277 328.716 293.642 330.572 297.05 334.291C300.458 338.009 302.162 342.529 302.162 347.834C302.162 348.655 302.068 349.744 301.872 351.096H272.991L272.998 351.103ZM272.924 344.728H294.255C293.722 341.782 292.503 339.563 290.591 338.063C288.678 336.564 286.442 335.817 283.882 335.817C280.979 335.817 278.561 336.611 276.628 338.205C274.695 339.798 273.456 341.97 272.931 344.728H272.924Z" fill="#FFF6B3"/>
<path d="M315.006 351.103C315.585 353.853 316.919 355.971 318.993 357.444C321.075 358.917 323.614 359.657 326.611 359.657C330.774 359.657 333.892 358.164 335.973 355.164L342.432 358.93C338.849 364.196 333.555 366.825 326.544 366.825C320.644 366.825 315.882 365.03 312.251 361.425C308.621 357.827 306.809 353.275 306.809 347.767C306.809 342.26 308.601 337.828 312.177 334.183C315.754 330.538 320.354 328.716 325.965 328.716C331.285 328.716 335.65 330.572 339.058 334.291C342.466 338.009 344.17 342.529 344.17 347.834C344.17 348.655 344.076 349.744 343.881 351.096H314.999L315.006 351.103ZM314.932 344.728H336.263C335.731 341.782 334.512 339.563 332.599 338.063C330.686 336.564 328.45 335.817 325.89 335.817C322.988 335.817 320.57 336.611 318.637 338.205C316.703 339.798 315.464 341.97 314.939 344.728H314.932Z" fill="#FFF6B3"/>
<path d="M351.067 365.884V313H358.9V365.884H351.067Z" fill="#FFF6B3"/>
<defs>
<filter id="filter0_d_302_2045" x="262.901" y="175.702" width="86" height="100.375" filterUnits="userSpaceOnUse" color-interpolation-filters="sRGB">
<feFlood flood-opacity="0" result="BackgroundImageFix"/>
<feColorMatrix in="SourceAlpha" type="matrix" values="0 0 0 0 0 0 0 0 0 0 0 0 0 0 0 0 0 0 127 0" result="hardAlpha"/>
<feOffset dx="4" dy="4"/>
<feGaussianBlur stdDeviation="7.5"/>
<feComposite in2="hardAlpha" operator="out"/>
<feColorMatrix type="matrix" values="0 0 0 0 0 0 0 0 0 0 0 0 0 0 0 0 0 0 0.2 0"/>
<feBlend mode="normal" in2="BackgroundImageFix" result="effect1_dropShadow_302_2045"/>
<feBlend mode="normal" in="SourceGraphic" in2="effect1_dropShadow_302_2045" result="shape"/>
</filter>
</defs>
</svg>
