<svg width="81" height="23" viewBox="0 0 81 23" fill="none" xmlns="http://www.w3.org/2000/svg">
<g clip-path="url(#clip0_302_2165)">
<path d="M3.51561 22.204H2.92581L2.80042 21.5754C2.51248 21.9792 2.05736 22.2728 1.3886 22.2728C0.640896 22.2728 -0.00463867 21.8736 -0.00463867 20.9239C-0.00463867 19.9742 0.798796 19.4695 2.02949 19.4695H2.76326V19.2768C2.76326 18.5886 2.32672 18.3592 1.78335 18.3592C1.31894 18.3592 0.942764 18.6161 0.845238 19.0566L0.185771 18.9052C0.311162 18.1573 0.933476 17.6893 1.78335 17.6893C2.77255 17.6893 3.51561 18.1848 3.51561 19.364V22.204ZM1.5047 21.6029C2.08522 21.6029 2.76326 21.2497 2.76326 20.2449V20.1393H1.95983C1.19355 20.1393 0.761643 20.4238 0.761643 20.9239C0.761643 21.346 1.031 21.6029 1.5047 21.6029Z" fill="#E4D48C"/>
<path d="M7.32842 18.4785C7.16587 18.4005 6.98939 18.3546 6.80363 18.3546C6.18596 18.3546 5.54507 19.0703 5.54507 20.5156V22.1994H4.79736V17.7535H5.54507V18.5106C5.81443 18.0151 6.36708 17.6801 6.86865 17.6801C7.11943 17.6801 7.35164 17.7398 7.48632 17.8132L7.33306 18.4739L7.32842 18.4785Z" fill="#E4D48C"/>
<path d="M8.00648 17.7581H8.78205V16.4276L9.52975 15.9596V17.7581H10.7094V18.428H9.52975V20.8734C9.52975 21.3506 9.75267 21.6075 10.1288 21.6075C10.3239 21.6075 10.4772 21.5708 10.6397 21.4653L10.8162 22.1076C10.6025 22.2315 10.3425 22.2774 10.0824 22.2774C9.32541 22.2774 8.7774 21.8186 8.7774 20.8138V18.4326H8.00183V17.7627L8.00648 17.7581Z" fill="#E4D48C"/>
<path d="M14.2203 20.4376C14.2203 19.5108 14.8287 18.8593 15.4278 18.561C15.2049 18.2628 14.8844 17.804 14.8844 17.2718C14.8844 16.5056 15.4835 15.9596 16.2684 15.9596C17.1694 15.9596 17.6616 16.5331 17.6616 17.1938C17.6616 17.4324 17.5827 17.6985 17.4387 17.9417C17.2622 18.2491 16.8675 18.5335 16.4495 18.7446L17.7545 20.3779C17.8985 20.0889 18.0332 19.7356 18.1725 19.3273L18.6741 19.8641C18.5394 20.2449 18.3861 20.6119 18.2096 20.9468L19.2081 22.1994H18.3072L17.7824 21.5479C17.3876 21.9883 16.8628 22.2728 16.1105 22.2728C14.9866 22.2728 14.225 21.5938 14.225 20.4376M17.3505 21.0111L15.8133 19.0611C15.321 19.3364 14.9541 19.7952 14.9541 20.4559C14.9541 21.1946 15.5068 21.5846 16.1059 21.5846C16.6306 21.5846 17.0254 21.4011 17.3458 21.0111M15.595 17.3085C15.595 17.6159 15.7901 17.96 16.0315 18.272C16.5656 18.0059 16.9511 17.7168 16.9511 17.2397C16.9511 16.8772 16.6724 16.5974 16.2638 16.5974C15.8551 16.5974 15.595 16.9139 15.595 17.3131" fill="#E4D48C"/>
<path d="M28.9005 22.204H28.1528V19.2309C28.1528 18.6574 27.902 18.3592 27.4283 18.3592C26.7781 18.3592 26.2301 19.0841 26.2301 20.3779V22.204H25.4824V19.2309C25.4824 18.6574 25.2316 18.3592 24.7579 18.3592C24.1077 18.3592 23.5597 19.0841 23.5597 20.3779V22.204H22.812V17.7581H23.5597V18.5794C23.8477 18.0242 24.3353 17.6893 24.9622 17.6893C25.5892 17.6893 26.0258 18.0334 26.1697 18.6161C26.4809 18.0334 27.001 17.6893 27.6326 17.6893C28.4546 17.6893 28.9005 18.2169 28.9005 19.0749V22.204Z" fill="#E4D48C"/>
<path d="M34.1391 20.1393H30.8371C30.8835 20.9606 31.2922 21.6029 32.1049 21.6029C32.7644 21.6029 33.1034 21.3047 33.3542 20.7541L34.0137 21.0386C33.5957 21.9012 33.0338 22.2728 32.1049 22.2728C30.7396 22.2728 30.0708 21.1717 30.0708 19.9788C30.0708 18.7859 30.7396 17.6847 32.1049 17.6847C33.4703 17.6847 34.1391 18.6895 34.1391 19.7906V20.1348V20.1393ZM30.8789 19.4695H33.3542C33.2195 18.8363 32.8294 18.3592 32.1049 18.3592C31.3804 18.3592 31.0136 18.8272 30.8835 19.4695" fill="#E4D48C"/>
<path d="M37.1809 17.6847C37.7522 17.6847 38.342 18.0288 38.4952 18.2858V15.955H39.2429V22.1994H38.4952V21.6534C38.2816 21.9792 37.7289 22.2728 37.1809 22.2728C35.8574 22.2728 35.1793 21.3093 35.1793 19.9788C35.1793 18.6482 35.8574 17.6847 37.1809 17.6847ZM37.2506 21.6029C38.0726 21.6029 38.5556 20.9331 38.5556 19.9788C38.5556 19.0244 38.0726 18.3546 37.2506 18.3546C36.4286 18.3546 35.9456 19.0244 35.9456 19.9788C35.9456 20.9331 36.4565 21.6029 37.2506 21.6029Z" fill="#E4D48C"/>
<path d="M41.0588 15.9596C41.3792 15.9596 41.6207 16.2074 41.6207 16.5239C41.6207 16.8405 41.3792 17.0699 41.0588 17.0699C40.7383 17.0699 40.4968 16.8313 40.4968 16.5239C40.4968 16.2165 40.7383 15.9596 41.0588 15.9596ZM41.4349 22.204H40.6826V17.7581H41.4349V22.204Z" fill="#E4D48C"/>
<path d="M46.2323 22.204H45.6425L45.5171 21.5754C45.2292 21.9792 44.774 22.2728 44.1053 22.2728C43.3576 22.2728 42.712 21.8736 42.712 20.9239C42.712 19.9742 43.5155 19.4695 44.7462 19.4695H45.4799V19.2768C45.4799 18.5886 45.0434 18.3592 44.5 18.3592C44.0356 18.3592 43.6594 18.6161 43.5619 19.0566L42.9024 18.9052C43.0278 18.1573 43.6502 17.6893 44.5 17.6893C45.4892 17.6893 46.2323 18.1848 46.2323 19.364V22.204ZM44.2214 21.6029C44.8019 21.6029 45.4799 21.2497 45.4799 20.2449V20.1393H44.6765C43.9102 20.1393 43.4783 20.4238 43.4783 20.9239C43.4783 21.346 43.7477 21.6029 44.2214 21.6029Z" fill="#E4D48C"/>
<path d="M53.6908 22.204H52.9431V19.2676C52.9431 18.6574 52.6644 18.3592 52.1675 18.3592C51.508 18.3592 50.8114 19.0933 50.8114 20.3183V22.204H50.0637V15.9596H50.8114V18.5886C51.0994 18.0518 51.6752 17.6893 52.3719 17.6893C53.1939 17.6893 53.6954 18.1756 53.6954 19.1162V22.204H53.6908Z" fill="#E4D48C"/>
<path d="M55.1351 17.7581H55.8828V20.6945C55.8828 21.3047 56.1615 21.6029 56.6584 21.6029C57.3272 21.6029 57.9448 20.8551 57.9448 19.6163V17.7535H58.6972V22.1994H57.9448V21.3781C57.6151 21.9516 57.081 22.2682 56.4541 22.2682C55.6321 22.2682 55.1305 21.7635 55.1305 20.8826V17.7535L55.1351 17.7581Z" fill="#E4D48C"/>
<path d="M62.2407 22.2728C61.6973 22.2728 61.1447 21.9837 60.9264 21.6534V22.1994H60.1787V15.955H60.9264V18.2858C61.0797 18.0288 61.6695 17.6847 62.2407 17.6847C63.5596 17.6847 64.2423 18.6482 64.2423 19.9788C64.2423 21.3093 63.5643 22.2728 62.2407 22.2728ZM62.171 18.3546C61.349 18.3546 60.866 19.0244 60.866 19.9788C60.866 20.9331 61.349 21.6029 62.171 21.6029C62.9931 21.6029 63.476 20.9331 63.476 19.9788C63.476 19.0244 62.9652 18.3546 62.171 18.3546Z" fill="#E4D48C"/>
<path d="M5.86554 6.95321C5.40578 6.32006 4.79275 6.00348 4.02182 6.00348C3.70602 6.00348 3.39951 6.08148 3.09764 6.23748C2.79577 6.39347 2.64716 6.64581 2.64716 6.99451C2.64716 7.27897 2.77255 7.48543 3.01869 7.6139C3.26483 7.74236 3.58063 7.85248 3.96145 7.94424C4.34227 8.036 4.75095 8.12776 5.1875 8.22411C5.62405 8.32046 6.03273 8.47187 6.41355 8.66915C6.79437 8.87103 7.10553 9.14173 7.35631 9.49501C7.60245 9.8437 7.72784 10.3209 7.72784 10.9311C7.72784 11.4862 7.60709 11.9542 7.3656 12.335C7.1241 12.7158 6.8083 13.0232 6.42284 13.2572C6.03738 13.4912 5.60083 13.6564 5.11784 13.7619C4.63485 13.8629 4.15186 13.9179 3.66423 13.9179C2.93045 13.9179 2.25705 13.8124 1.64403 13.6059C1.031 13.3995 0.478351 13.0232 -0.00463867 12.4818L1.56508 11.0274C1.86695 11.3624 2.18739 11.6376 2.5357 11.8533C2.88401 12.0643 3.30198 12.1744 3.80355 12.1744C3.97538 12.1744 4.15186 12.1561 4.33298 12.1148C4.5141 12.0781 4.68594 12.0093 4.84384 11.9221C5.00174 11.8303 5.12713 11.7202 5.22465 11.5826C5.32218 11.4449 5.37327 11.2889 5.37327 11.1054C5.37327 10.7843 5.24788 10.5411 5.00174 10.3897C4.75095 10.2337 4.4398 10.1098 4.05898 10.0135C3.67816 9.91711 3.26947 9.82535 2.83293 9.74276C2.39638 9.66018 1.98769 9.52254 1.60688 9.33442C1.22606 9.14631 0.914899 8.88479 0.664116 8.54986C0.413333 8.21493 0.292586 7.74695 0.292586 7.15509C0.292586 6.63664 0.399401 6.18701 0.617675 5.8062C0.831305 5.42539 1.11924 5.1134 1.4722 4.86564C1.82515 4.62247 2.22919 4.43895 2.68896 4.32425C3.14873 4.20955 3.61314 4.1499 4.0822 4.1499C4.70916 4.1499 5.33147 4.25543 5.94449 4.47107C6.55752 4.68212 7.05444 5.04916 7.43526 5.56762L5.86554 6.96239V6.95321Z" fill="#E4D48C"/>
<path d="M11.5174 5.67314H11.5546C11.7357 5.28774 12.0608 4.93446 12.5252 4.61788C12.9896 4.30131 13.5887 4.14072 14.3225 4.14072C14.9494 4.14072 15.4835 4.24625 15.92 4.45271C16.3566 4.65918 16.7142 4.92987 16.9882 5.2648C17.2622 5.59973 17.4573 5.98972 17.578 6.42558C17.6941 6.86604 17.7545 7.32485 17.7545 7.802V13.6747H15.3999V8.96279C15.3999 8.70586 15.386 8.41681 15.3628 8.10023C15.3349 7.78365 15.2699 7.48543 15.1584 7.21014C15.047 6.93027 14.8751 6.70087 14.6383 6.51276C14.4014 6.32465 14.081 6.23288 13.6769 6.23288C13.2729 6.23288 12.9524 6.29712 12.6877 6.42558C12.4184 6.55405 12.1955 6.7284 12.019 6.94862C11.8425 7.16885 11.7171 7.42119 11.6382 7.70566C11.5592 7.99012 11.5221 8.28834 11.5221 8.59574V13.6747H9.16748V0.837311H11.5221V5.67314H11.5174Z" fill="#E4D48C"/>
<path d="M25.9189 12.3993H25.8585C25.5195 12.9315 25.0876 13.3123 24.5628 13.5509C24.038 13.7894 23.4622 13.9087 22.8352 13.9087C22.4033 13.9087 21.9807 13.8491 21.5674 13.7344C21.154 13.6197 20.7872 13.4453 20.4667 13.2114C20.1463 12.9774 19.8862 12.6883 19.6911 12.3396C19.4961 11.9909 19.3986 11.5826 19.3986 11.1192C19.3986 10.6145 19.4914 10.1878 19.6726 9.82994C19.8537 9.47666 20.0998 9.17843 20.4063 8.93986C20.7128 8.70128 21.0704 8.50858 21.4745 8.36635C21.8785 8.22412 22.3011 8.11859 22.7377 8.04518C23.1742 7.97636 23.6154 7.93048 24.0613 7.90754C24.5071 7.88919 24.9251 7.88001 25.3152 7.88001H25.905V7.62767C25.905 7.04498 25.7006 6.60911 25.2966 6.32007C24.8926 6.03102 24.3724 5.8842 23.7455 5.8842C23.2485 5.8842 22.7841 5.97137 22.3522 6.14572C21.9203 6.32007 21.5488 6.55406 21.233 6.85228L19.9977 5.63186C20.5224 5.10423 21.1308 4.71883 21.8321 4.48943C22.5333 4.25543 23.2532 4.14073 24.0009 4.14073C24.6697 4.14073 25.2316 4.21414 25.6867 4.36555C26.1465 4.51237 26.5227 4.70506 26.8245 4.93906C27.1264 5.17305 27.3586 5.43916 27.5211 5.74197C27.6837 6.04478 27.8044 6.35218 27.8741 6.66417C27.9438 6.97616 27.9902 7.27438 27.9995 7.56343C28.0134 7.85248 28.0181 8.10941 28.0181 8.32964V13.6793H25.9003V12.3993H25.9189ZM25.7796 9.51336H25.2873C24.9622 9.51336 24.5953 9.52713 24.1867 9.55007C23.7826 9.5776 23.3972 9.63724 23.0396 9.73359C22.682 9.82994 22.3754 9.97217 22.1293 10.1603C21.8785 10.3484 21.7578 10.6099 21.7578 10.9448C21.7578 11.1651 21.8089 11.3486 21.9064 11.4954C22.0039 11.6422 22.134 11.7707 22.2872 11.8716C22.4451 11.9772 22.6216 12.0506 22.8166 12.0964C23.0117 12.1423 23.2067 12.1653 23.4064 12.1653C24.2192 12.1653 24.8136 11.9772 25.2037 11.5918C25.5892 11.211 25.7842 10.6925 25.7842 10.0318V9.50878L25.7796 9.51336Z" fill="#E4D48C"/>
<path d="M30.1776 0.837311H32.5322V5.55385H32.5926C32.7087 5.39786 32.8619 5.24186 33.043 5.07669C33.2242 4.91611 33.4471 4.7647 33.7118 4.62247C33.9719 4.48024 34.2737 4.36554 34.6128 4.27378C34.9518 4.18202 35.3465 4.13614 35.7924 4.13614C36.4611 4.13614 37.0741 4.26001 37.6361 4.51236C38.198 4.7647 38.681 5.10881 39.0804 5.54926C39.4798 5.98972 39.791 6.50358 40.0139 7.10003C40.2368 7.69648 40.3483 8.33422 40.3483 9.01784C40.3483 9.70147 40.2414 10.3438 40.0325 10.9357C39.8235 11.5321 39.517 12.046 39.1083 12.4864C38.7042 12.9269 38.212 13.271 37.6361 13.5233C37.0602 13.7757 36.4147 13.8996 35.6948 13.8996C35.0261 13.8996 34.4084 13.7711 33.8325 13.5142C33.2567 13.2572 32.7969 12.8443 32.4579 12.2754H32.4207V13.6701H30.1823V0.837311H30.1776ZM37.989 9.02702C37.989 8.66456 37.9287 8.31587 37.8033 7.98094C37.6779 7.64601 37.4968 7.34779 37.2553 7.09085C37.0138 6.83392 36.7212 6.62746 36.3822 6.47146C36.0431 6.31547 35.6577 6.23747 35.2258 6.23747C34.7939 6.23747 34.4084 6.31547 34.0694 6.47146C33.7304 6.62746 33.4378 6.83392 33.1963 7.09085C32.9548 7.34779 32.769 7.64601 32.6483 7.98094C32.5229 8.31587 32.4625 8.66456 32.4625 9.02702C32.4625 9.38948 32.5229 9.73817 32.6483 10.0731C32.7737 10.408 32.9548 10.7063 33.1963 10.9632C33.4378 11.2201 33.7304 11.4266 34.0694 11.5826C34.4084 11.7386 34.7939 11.8166 35.2258 11.8166C35.6577 11.8166 36.0431 11.7386 36.3822 11.5826C36.7212 11.4266 37.0138 11.2201 37.2553 10.9632C37.4968 10.7063 37.6825 10.408 37.8033 10.0731C37.924 9.73817 37.989 9.38948 37.989 9.02702Z" fill="#E4D48C"/>
<path d="M41.4768 11.5275L46.5203 6.27417V6.23747H41.7137V4.37471H49.3672V6.48981L44.2633 11.8212H49.604V13.6793H41.4768V11.5275Z" fill="#E4D48C"/>
<path d="M57.0949 12.3993H57.0346C56.6955 12.9315 56.2636 13.3123 55.7389 13.5509C55.2141 13.7894 54.6382 13.9087 54.0112 13.9087C53.5793 13.9087 53.1567 13.8491 52.7434 13.7344C52.3301 13.6197 51.9632 13.4453 51.6427 13.2114C51.3223 12.9774 51.0622 12.6883 50.8672 12.3396C50.6721 11.9909 50.5746 11.5826 50.5746 11.1192C50.5746 10.6145 50.6675 10.1878 50.8486 9.82994C51.0297 9.47666 51.2758 9.17843 51.5824 8.93986C51.8889 8.70128 52.2465 8.50858 52.6505 8.36635C53.0546 8.22412 53.4772 8.11859 53.9137 8.04518C54.3503 7.97636 54.7915 7.93048 55.2373 7.90754C55.6831 7.88919 56.1011 7.88001 56.4912 7.88001H57.081V7.62767C57.081 7.04498 56.8767 6.60911 56.4726 6.32007C56.0686 6.03102 55.5485 5.8842 54.9215 5.8842C54.4246 5.8842 53.9602 5.97137 53.5283 6.14572C53.0963 6.32007 52.7248 6.55406 52.409 6.85228L51.1737 5.63186C51.6985 5.10423 52.3068 4.71883 53.0081 4.48943C53.7094 4.25543 54.4292 4.14073 55.1769 4.14073C55.8457 4.14073 56.4076 4.21414 56.8627 4.36555C57.3225 4.51237 57.6987 4.70506 58.0006 4.93906C58.3024 5.17305 58.5346 5.43916 58.6972 5.74197C58.8597 6.04478 58.9805 6.35218 59.0501 6.66417C59.1198 6.97616 59.1662 7.27438 59.1755 7.56343C59.1894 7.85248 59.1941 8.10941 59.1941 8.32964V13.6793H57.0764V12.3993H57.0949ZM56.9556 9.51336H56.4633C56.1383 9.51336 55.7714 9.52713 55.3627 9.55007C54.9586 9.5776 54.5732 9.63724 54.2156 9.73359C53.858 9.82994 53.5515 9.97217 53.3053 10.1603C53.0546 10.3484 52.9338 10.6099 52.9338 10.9448C52.9338 11.1651 52.9849 11.3486 53.0824 11.4954C53.1799 11.6422 53.31 11.7707 53.4632 11.8716C53.6211 11.9772 53.7976 12.0506 53.9927 12.0964C54.1877 12.1423 54.3828 12.1653 54.5825 12.1653C55.3952 12.1653 55.9896 11.9772 56.3798 11.5918C56.7652 11.211 56.9603 10.6925 56.9603 10.0318V9.50878L56.9556 9.51336Z" fill="#E4D48C"/>
<path d="M63.75 0.837311H61.3954V13.6793H63.75V0.837311Z" fill="#E4D48C"/>
<path d="M70.3214 9.02702C70.3214 8.28834 70.4561 7.62307 70.7254 7.02203C70.9948 6.42099 71.3571 5.90713 71.8168 5.48044C72.2766 5.05375 72.8153 4.72341 73.4469 4.494C74.0739 4.26001 74.7426 4.14531 75.4485 4.14531C76.1544 4.14531 76.8232 4.26001 77.4502 4.494C78.0771 4.72799 78.6205 5.05834 79.0802 5.48044C79.54 5.90713 79.9023 6.42099 80.167 7.02203C80.4363 7.62307 80.571 8.29293 80.571 9.02702C80.571 9.76111 80.4363 10.431 80.167 11.032C79.8976 11.633 79.5354 12.1469 79.0802 12.5736C78.6205 13.0003 78.0818 13.3306 77.4502 13.56C76.8232 13.794 76.1544 13.9087 75.4485 13.9087C74.7426 13.9087 74.0739 13.794 73.4469 13.56C72.82 13.326 72.2766 12.9957 71.8168 12.5736C71.3571 12.1469 70.9948 11.633 70.7254 11.032C70.4561 10.431 70.3214 9.76111 70.3214 9.02702ZM72.676 9.02702C72.676 9.38948 72.7364 9.73817 72.8618 10.0731C72.9871 10.408 73.1683 10.7063 73.4098 10.9632C73.6513 11.2201 73.9438 11.4266 74.2829 11.5826C74.6219 11.7386 75.0073 11.8166 75.4392 11.8166C75.8712 11.8166 76.2566 11.7386 76.5956 11.5826C76.9347 11.4266 77.2272 11.2201 77.4687 10.9632C77.7102 10.7063 77.896 10.408 78.0167 10.0731C78.1421 9.73817 78.2025 9.38948 78.2025 9.02702C78.2025 8.66456 78.1421 8.31587 78.0167 7.98094C77.8914 7.64601 77.7102 7.34778 77.4687 7.09085C77.2272 6.83392 76.9347 6.62746 76.5956 6.47146C76.2566 6.31547 75.8712 6.23747 75.4392 6.23747C75.0073 6.23747 74.6219 6.31547 74.2829 6.47146C73.9438 6.62746 73.6513 6.83392 73.4098 7.09085C73.1683 7.34778 72.9825 7.64601 72.8618 7.98094C72.7364 8.31587 72.676 8.66456 72.676 9.02702Z" fill="#E4D48C"/>
<path d="M66.1232 4.42977V13.6793H68.4777V4.42519C68.1248 4.62706 67.7254 4.728 67.2796 4.728C66.8337 4.728 66.4622 4.62706 66.1232 4.42977Z" fill="#E4D48C"/>
<path d="M68.371 3.12217C68.6635 2.85606 68.8121 2.52572 68.8121 2.12197C68.8121 1.71822 68.6635 1.38788 68.371 1.12177C68.0784 0.855665 67.7115 0.72261 67.2842 0.72261C66.857 0.72261 66.4947 0.860253 66.2161 1.14013C65.9328 1.42 65.7935 1.74575 65.7935 2.11738C65.7935 2.48902 65.9328 2.81936 66.2161 3.09464C66.4947 3.37452 66.8523 3.51216 67.2842 3.51216C67.7161 3.51216 68.0784 3.3791 68.371 3.113" fill="#E4D48C"/>
</g>
<defs>
<clipPath id="clip0_302_2165">
<rect width="80.5618" height="21.5456" fill="white" transform="translate(0 0.727203)"/>
</clipPath>
</defs>
</svg>
