<svg width="18" height="19" viewBox="0 0 18 19" fill="none" xmlns="http://www.w3.org/2000/svg">
<path d="M15.3769 2.76455C14.5476 1.88478 13.5599 1.18724 12.4712 0.712603C11.3826 0.237969 10.2149 -0.0042561 9.03618 5.6591e-05C4.09749 5.6591e-05 0.0723619 4.22754 0.0723619 9.41453C0.0723619 11.077 0.488442 12.692 1.26633 14.117L0 19L4.74874 17.689C6.0603 18.4395 7.53467 18.8385 9.03618 18.8385C13.9749 18.8385 18 14.611 18 9.42403C18 6.90654 17.0683 4.54104 15.3769 2.76455ZM9.03618 17.2425C7.69749 17.2425 6.38593 16.8625 5.23719 16.15L4.96583 15.979L2.14372 16.758L2.89447 13.87L2.71357 13.5755C1.96982 12.3281 1.5749 10.8863 1.57387 9.41453C1.57387 5.10154 4.9206 1.58655 9.02713 1.58655C11.0171 1.58655 12.8894 2.40355 14.2915 3.88555C14.9857 4.61131 15.5358 5.47457 15.91 6.42529C16.2842 7.37601 16.475 8.39528 16.4714 9.42403C16.4894 13.737 13.1427 17.2425 9.03618 17.2425ZM13.1246 11.3905C12.8985 11.2765 11.795 10.7065 11.596 10.621C11.3879 10.545 11.2432 10.507 11.0894 10.735C10.9357 10.9725 10.5106 11.5045 10.3839 11.6565C10.2573 11.818 10.1216 11.837 9.89548 11.7135C9.66935 11.5995 8.94573 11.343 8.09548 10.545C7.42613 9.91803 6.98291 9.14853 6.84724 8.91103C6.7206 8.67353 6.82914 8.55003 6.94673 8.42653C7.04623 8.32203 7.17286 8.15103 7.28141 8.01803C7.38995 7.88503 7.43518 7.78053 7.50754 7.62853C7.5799 7.46703 7.54372 7.33404 7.48945 7.22004C7.43517 7.10604 6.98291 5.94704 6.80201 5.47204C6.6211 5.01604 6.43116 5.07304 6.29548 5.06354H5.86131C5.70754 5.06354 5.47236 5.12054 5.26432 5.35804C5.06533 5.59554 4.48643 6.16554 4.48643 7.32453C4.48643 8.48353 5.29146 9.60453 5.4 9.75653C5.50854 9.91803 6.98291 12.293 9.22613 13.3095C9.7598 13.5565 10.1759 13.699 10.5015 13.8035C11.0352 13.984 11.5236 13.9555 11.9126 13.8985C12.3467 13.832 13.2422 13.3285 13.4231 12.7775C13.6131 12.2265 13.6131 11.761 13.5497 11.6565C13.4864 11.552 13.3508 11.5045 13.1246 11.3905Z" fill="#E4D48C"/>
</svg>
